<?xml version="1.0" encoding="UTF-8" standalone="no"?>
<!-- Created with Inkscape (http://www.inkscape.org/) -->

<svg
   version="1.1"
   id="svg1"
   width="1130.6667"
   height="360"
   viewBox="0 0 1130.6667 360"
   sodipodi:docname="Logo02.svg"
   inkscape:version="1.3.1 (9b9bdc1480, 2023-11-25, custom)"
   xmlns:inkscape="http://www.inkscape.org/namespaces/inkscape"
   xmlns:sodipodi="http://sodipodi.sourceforge.net/DTD/sodipodi-0.dtd"
   xmlns="http://www.w3.org/2000/svg"
   xmlns:svg="http://www.w3.org/2000/svg">
  <defs
     id="defs1">
    <clipPath
       clipPathUnits="userSpaceOnUse"
       id="clipPath2">
      <path
         d="M 0,270 H 848 V 0 H 0 Z"
         transform="translate(-162.2112,-227.73791)"
         id="path2" />
    </clipPath>
    <clipPath
       clipPathUnits="userSpaceOnUse"
       id="clipPath4">
      <path
         d="M 0,270 H 848 V 0 H 0 Z"
         transform="translate(-383.16281,-183.3028)"
         id="path4" />
    </clipPath>
    <clipPath
       clipPathUnits="userSpaceOnUse"
       id="clipPath6">
      <path
         d="M 0,270 H 848 V 0 H 0 Z"
         transform="translate(-465.49381,-129.5607)"
         id="path6" />
    </clipPath>
    <clipPath
       clipPathUnits="userSpaceOnUse"
       id="clipPath8">
      <path
         d="M 0,270 H 848 V 0 H 0 Z"
         transform="translate(-533.44091,-130.3719)"
         id="path8" />
    </clipPath>
    <clipPath
       clipPathUnits="userSpaceOnUse"
       id="clipPath10">
      <path
         d="M 0,270 H 848 V 0 H 0 Z"
         id="path10" />
    </clipPath>
    <clipPath
       clipPathUnits="userSpaceOnUse"
       id="clipPath12">
      <path
         d="M 0,270 H 848 V 0 H 0 Z"
         transform="translate(-666.54782,-165.1383)"
         id="path12" />
    </clipPath>
    <clipPath
       clipPathUnits="userSpaceOnUse"
       id="clipPath14">
      <path
         d="M 0,270 H 848 V 0 H 0 Z"
         id="path14" />
    </clipPath>
    <clipPath
       clipPathUnits="userSpaceOnUse"
       id="clipPath16">
      <path
         d="M 0,270 H 848 V 0 H 0 Z"
         transform="translate(-795.10892,-153.775)"
         id="path16" />
    </clipPath>
    <clipPath
       clipPathUnits="userSpaceOnUse"
       id="clipPath18">
      <path
         d="M 0,270 H 848 V 0 H 0 Z"
         transform="translate(-755.85909,-190.1908)"
         id="path18" />
    </clipPath>
    <clipPath
       clipPathUnits="userSpaceOnUse"
       id="clipPath20">
      <path
         d="M 0,270 H 848 V 0 H 0 Z"
         transform="translate(-378.29431,-46.057801)"
         id="path20" />
    </clipPath>
    <clipPath
       clipPathUnits="userSpaceOnUse"
       id="clipPath22">
      <path
         d="M 0,270 H 848 V 0 H 0 Z"
         transform="translate(-403.35881,-48.592899)"
         id="path22" />
    </clipPath>
    <clipPath
       clipPathUnits="userSpaceOnUse"
       id="clipPath24">
      <path
         d="M 0,270 H 848 V 0 H 0 Z"
         transform="translate(-429.37931,-26.176898)"
         id="path24" />
    </clipPath>
    <clipPath
       clipPathUnits="userSpaceOnUse"
       id="clipPath26">
      <path
         d="M 0,270 H 848 V 0 H 0 Z"
         transform="translate(-471.74361,-31.589003)"
         id="path26" />
    </clipPath>
    <clipPath
       clipPathUnits="userSpaceOnUse"
       id="clipPath28">
      <path
         d="M 0,270 H 848 V 0 H 0 Z"
         transform="translate(-489.55121,-48.592899)"
         id="path28" />
    </clipPath>
    <clipPath
       clipPathUnits="userSpaceOnUse"
       id="clipPath30">
      <path
         d="M 0,270 H 848 V 0 H 0 Z"
         transform="translate(-514.71622,-64.913304)"
         id="path30" />
    </clipPath>
    <clipPath
       clipPathUnits="userSpaceOnUse"
       id="clipPath32">
      <path
         d="M 0,270 H 848 V 0 H 0 Z"
         transform="translate(-529.86851,-35.348798)"
         id="path32" />
    </clipPath>
    <clipPath
       clipPathUnits="userSpaceOnUse"
       id="clipPath34">
      <path
         d="M 0,270 H 848 V 0 H 0 Z"
         transform="translate(-560.34412,-31.617398)"
         id="path34" />
    </clipPath>
    <clipPath
       clipPathUnits="userSpaceOnUse"
       id="clipPath36">
      <path
         d="M 0,270 H 848 V 0 H 0 Z"
         transform="translate(-593.29822,-48.592899)"
         id="path36" />
    </clipPath>
    <clipPath
       clipPathUnits="userSpaceOnUse"
       id="clipPath38">
      <path
         d="M 0,270 H 848 V 0 H 0 Z"
         transform="translate(-633.88511,-64.913304)"
         id="path38" />
    </clipPath>
    <clipPath
       clipPathUnits="userSpaceOnUse"
       id="clipPath40">
      <path
         d="M 0,270 H 848 V 0 H 0 Z"
         transform="translate(-664.57652,-51.583201)"
         id="path40" />
    </clipPath>
    <clipPath
       clipPathUnits="userSpaceOnUse"
       id="clipPath42">
      <path
         d="M 0,270 H 848 V 0 H 0 Z"
         transform="translate(-678.47501,-26.860501)"
         id="path42" />
    </clipPath>
    <clipPath
       clipPathUnits="userSpaceOnUse"
       id="clipPath44">
      <path
         d="M 0,270 H 848 V 0 H 0 Z"
         transform="translate(-699.28361,-25.607603)"
         id="path44" />
    </clipPath>
    <clipPath
       clipPathUnits="userSpaceOnUse"
       id="clipPath46">
      <path
         d="M 0,270 H 848 V 0 H 0 Z"
         transform="translate(-734.90862,-53.235504)"
         id="path46" />
    </clipPath>
    <clipPath
       clipPathUnits="userSpaceOnUse"
       id="clipPath48">
      <path
         d="M 0,270 H 848 V 0 H 0 Z"
         transform="translate(-743.51602,-26.176898)"
         id="path48" />
    </clipPath>
    <clipPath
       clipPathUnits="userSpaceOnUse"
       id="clipPath50">
      <path
         d="M 0,270 H 848 V 0 H 0 Z"
         transform="translate(-772.04334,-64.286304)"
         id="path50" />
    </clipPath>
    <clipPath
       clipPathUnits="userSpaceOnUse"
       id="clipPath52">
      <path
         d="M 0,270 H 848 V 0 H 0 Z"
         transform="translate(-813.23965,-31.617398)"
         id="path52" />
    </clipPath>
    <clipPath
       clipPathUnits="userSpaceOnUse"
       id="clipPath9">
      <path
         d="M 0,270 H 855.106 V 0 H 0 Z"
         transform="translate(-252.58371,-200.0491)"
         id="path9-3" />
    </clipPath>
    <clipPath
       clipPathUnits="userSpaceOnUse"
       id="clipPath13">
      <path
         d="M 0,270 H 855.106 V 0 H 0 Z"
         transform="translate(-162.9066,-238.51391)"
         id="path13-3" />
    </clipPath>
    <clipPath
       clipPathUnits="userSpaceOnUse"
       id="clipPath11">
      <path
         d="M 0,270 H 855.106 V 0 H 0 Z"
         transform="translate(-218.50671,-134.61951)"
         id="path11-8" />
    </clipPath>
    <clipPath
       clipPathUnits="userSpaceOnUse"
       id="clipPath7">
      <path
         d="M 0,270 H 855.106 V 0 H 0 Z"
         transform="translate(-279.62011,-79.385102)"
         id="path7-6" />
    </clipPath>
    <clipPath
       clipPathUnits="userSpaceOnUse"
       id="clipPath5">
      <path
         d="M 0,270 H 855.106 V 0 H 0 Z"
         transform="translate(-271.08831,-197.81931)"
         id="path5-2" />
    </clipPath>
  </defs>
  <sodipodi:namedview
     id="namedview1"
     pagecolor="#ffffff"
     bordercolor="#000000"
     borderopacity="0.25"
     inkscape:showpageshadow="2"
     inkscape:pageopacity="0.0"
     inkscape:pagecheckerboard="0"
     inkscape:deskcolor="#d1d1d1"
     showgrid="false"
     inkscape:zoom="1.6785446"
     inkscape:cx="465.28404"
     inkscape:cy="227.28023"
     inkscape:window-width="1920"
     inkscape:window-height="1011"
     inkscape:window-x="0"
     inkscape:window-y="0"
     inkscape:window-maximized="1"
     inkscape:current-layer="layer-MC0">
    <inkscape:page
       x="0"
       y="0"
       inkscape:label="1"
       id="page1"
       width="1130.6667"
       height="360"
       margin="8.1007471 33.905334 23.329334 33.904934"
       bleed="0" />
  </sodipodi:namedview>
  <g
     id="layer-MC0"
     inkscape:groupmode="layer"
     inkscape:label="Camada 1">
    <path
       id="path1"
       d="m 0,0 c 1.371,7.929 -3.386,10.536 -7.622,11.329 -2.157,0.4 -5.1,0.943 -9.25,0.943 -8.365,0 -21.665,-2.207 -43.509,-12.222 -21.051,-9.643 -47.666,-35.094 -59.674,-70.203 -3.6,-10.522 -1.321,-22.251 6.086,-31.387 7.251,-8.921 17.78,-13.479 28.194,-12.2 6.679,0.821 9.922,6.543 14.029,13.793 3.865,6.815 8.672,15.294 17.937,21.887 7.107,5.05 14.6,6.093 21.843,7.093 9.358,1.3 18.187,2.529 24.409,12.836 4.193,6.943 3.914,14.029 3.593,22.222 -0.143,3.593 -0.286,7.315 -0.093,11.365 0.328,6.736 1.764,13.465 2.914,18.865 C -0.7,-3.6 -0.279,-1.636 0,0 m 54.788,-108.447 c 8.422,6.157 -1.815,13.743 -7.015,16.265 -4.35,2.114 -7.207,2.664 -10.236,3.243 -3.643,0.7 -7.772,1.493 -15.022,5.179 -5.743,2.921 -8.614,6.528 -10.915,9.429 -2.314,2.907 -3.843,4.828 -7.114,4.828 -1.907,0 -3.007,-1.221 -4.665,-3.071 -2.007,-2.229 -4.743,-5.279 -10.336,-7.215 -4.586,-1.578 -9.579,-2.436 -14.407,-3.264 -5.929,-1.022 -11.529,-1.979 -15.887,-4.158 -11.793,-5.878 -25.965,-23.922 -21.336,-38.815 1.557,-4.993 14.515,-17.394 34.472,-15.694 6.115,0.515 11.187,0.807 17.015,2.15 9.579,2.215 15.287,2.415 21.816,1.929 12.064,-0.9 23.543,-15.786 24.058,-8.179 1.121,16.679 8.821,29.508 19.572,37.373 m 24.165,48.58 c 7.415,11.294 8.422,23.273 2.772,32.873 C 65.517,0.514 39.802,4.007 31.351,5.15 c -0.728,0.1 -1.336,0.186 -1.821,0.265 -0.586,0.092 -1.157,0.142 -1.715,0.142 -4.878,0 -8.986,-3.528 -11.214,-9.736 -2.979,-8.336 -6.008,-21.858 -3.486,-38.901 0.064,-0.422 0.121,-0.886 0.193,-1.386 1.178,-8.793 3.943,-29.38 37.587,-33.53 8.514,-1.057 20.586,6.736 28.058,18.129 m 29.401,-89.753 c 0.207,0.807 0.307,1.614 0.307,2.407 0,3.036 -1.478,5.886 -4.257,8.058 -5.764,4.514 -9.907,4.993 -16.001,4.293 -1,-0.115 -2.428,-0.158 -3.264,0.757 -0.957,1.043 -0.636,2.657 -0.221,4.7 0.8,3.936 1.893,9.329 -4.236,14.751 -2.593,2.293 -5.258,3.45 -7.936,3.45 -0.472,0 -0.936,-0.065 -1.408,-0.107 -11.9,-0.95 -18.522,-15.987 -18.522,-15.987 -4.914,-7.972 -7.557,-16.808 -7.35,-26.008 0.086,-4.122 1.707,-7.5 4.815,-10.065 5.55,-4.571 15.293,-6.071 26.722,-4.107 17.572,3.015 29.294,9.693 31.351,17.858 m 23.83,68.36 c 3.571,25.622 -18.53,43.609 -32.023,52.045 -0.286,0.178 -0.571,0.25 -0.843,0.25 -0.414,0 -0.778,-0.165 -1.043,-0.386 -0.428,-0.364 -0.778,-1.029 -0.457,-1.814 3.629,-9.022 2.464,-18.215 -4.164,-32.787 -4.479,-9.858 -11.951,-14.908 -17.408,-18.594 -5.822,-3.936 -8.558,-6.007 -7.05,-10.072 1.6,-4.286 6.585,-5.372 11.871,-6.522 3.872,-0.85 8.186,-3.035 10.929,-5.3 5.965,-4.921 8.258,-9.343 10.151,-13.543 2.564,-5.672 3.686,-7.55 8.179,-5.836 2.628,1 3.514,4.95 4.643,9.957 0.864,3.822 1.836,8.144 3.807,12.637 1.379,3.143 3.572,4.9 5.693,6.6 3.243,2.6 6.586,5.286 7.715,13.365 m 16.95,4.678 c 0,-12.657 -5.978,-21.522 -14.95,-30.944 -5.358,-5.628 -6.343,-14.779 -7.386,-24.472 -1.25,-11.579 -2.672,-24.708 -11.729,-35.023 -7.486,-8.529 -22.674,-14.581 -22.995,-14.771 -5.362,-3.161 4.635,-11.184 10.797,-16.439 5.79,-4.938 8.37,-12.104 5.389,-17.929 -1.341,-2.623 -5.757,-6.081 -11.11,-5.42 -8.578,1.059 -11.474,10.614 -15.812,17.327 -4.28,6.624 -8.214,13.609 -15.097,16.319 -0.176,0.069 -6.328,2.136 -11.291,3.884 -15.897,5.6 -23.02,15.001 -26.949,22.279 -3.386,6.272 -5.622,10.415 -15.886,12.008 -7.851,1.214 -16.908,-1.036 -25.673,-3.214 -7.75,-1.922 -15.072,-3.743 -20.865,-2.936 -18.258,2.564 -35.258,11.915 -45.487,25.015 -1.972,2.536 -4.25,2.55 -8.022,2.579 -5.6,0.043 -14.058,0.114 -27.487,9.257 -13.75,9.358 -21.729,23.33 -21.351,37.373 0.593,21.372 14.272,48.073 34.845,68.024 18.022,17.472 49.437,38.323 96.782,38.43 h 0.314 c 22.223,0 46.609,-5.214 70.567,-15.086 23.301,-9.608 44.316,-23.058 59.181,-37.887 15.844,-15.808 24.215,-32.537 24.215,-48.374"
       style="fill:#000000;fill-opacity:1;fill-rule:nonzero;stroke:none"
       transform="matrix(1.3333333,0,0,-1.3333333,216.2816,56.349467)"
       clip-path="url(#clipPath2)" />
    <path
       id="path3"
       d="M 0,0 V -18.763 H 29.896 V -43.484 H 0 V -62.843 H 31.521 V -87.562 H -26.515 V 24.719 H 31.521 V 0 Z"
       style="fill:#000000;fill-opacity:1;fill-rule:nonzero;stroke:none"
       transform="matrix(1.3333333,0,0,-1.3333333,510.88373,115.59627)"
       clip-path="url(#clipPath4)" />
    <path
       id="path5"
       d="M 0,0 16.505,35.578 H 44.103 L 7.847,-33.82 H -7.845 l -36.392,69.398 h 27.599 z"
       style="fill:#000000;fill-opacity:1;fill-rule:nonzero;stroke:none"
       transform="matrix(1.3333333,0,0,-1.3333333,620.6584,187.2524)"
       clip-path="url(#clipPath6)" />
    <path
       id="path7"
       d="m 0,0 c 0,-8.793 5.819,-15.557 15.829,-15.557 10.011,0 15.827,6.764 15.827,15.557 0,8.523 -5.816,15.692 -15.827,15.692 C 5.819,15.692 0,8.523 0,0 m 57.63,0 c 0,-23.539 -19.48,-36.931 -41.801,-36.931 -22.187,0 -41.803,13.257 -41.803,36.931 0,23.674 19.482,37.066 41.803,37.066 C 38.15,37.066 57.63,23.674 57.63,0"
       style="fill:#000000;fill-opacity:1;fill-rule:nonzero;stroke:none"
       transform="matrix(1.3333333,0,0,-1.3333333,711.25453,186.1708)"
       clip-path="url(#clipPath8)" />
    <path
       id="path9"
       d="m 626.932,95.74 h -24.621 v 112.282 h 24.621 z"
       style="fill:#000000;fill-opacity:1;fill-rule:nonzero;stroke:none"
       transform="matrix(1.3333333,0,0,-1.3333333,0,360)"
       clip-path="url(#clipPath10)" />
    <path
       id="path11"
       d="m 0,0 v -37.066 c 0,-8.793 2.164,-15.016 12.31,-15.016 10.147,0 12.311,6.223 12.311,15.016 V 0 h 24.621 v -41.801 c 0,-22.862 -16.099,-29.897 -36.932,-29.897 -20.832,0 -36.931,7.035 -36.931,29.897 l 0,41.801 z"
       style="fill:#000000;fill-opacity:1;fill-rule:nonzero;stroke:none"
       transform="matrix(1.3333333,0,0,-1.3333333,888.7304,139.8156)"
       clip-path="url(#clipPath12)" />
    <path
       id="path13"
       d="m 755.088,95.74 h -24.621 v 69.398 h 24.621 z"
       style="fill:#000000;fill-opacity:1;fill-rule:nonzero;stroke:none"
       transform="matrix(1.3333333,0,0,-1.3333333,0,360)"
       clip-path="url(#clipPath14)" />
    <path
       id="path15"
       d="m 0,0 h 0.272 c 4.733,8.523 12.85,12.31 22.455,12.31 h 4.735 v -23.673 c -3.383,1.894 -6.63,2.299 -10.416,2.299 C 3.383,-9.064 0,-18.127 0,-30.032 V -58.035 H -24.621 V 11.363 H 0 Z"
       style="fill:#000000;fill-opacity:1;fill-rule:nonzero;stroke:none"
       transform="matrix(1.3333333,0,0,-1.3333333,1060.1452,154.96667)"
       clip-path="url(#clipPath16)" />
    <path
       id="path17"
       d="m 0,0 c 0,-7.182 -5.899,-13.081 -13.082,-13.081 -7.18,0 -13.081,5.899 -13.081,13.081 0,7.182 5.901,13.081 13.081,13.081 C -5.899,13.081 0,7.182 0,0"
       style="fill:#000000;fill-opacity:1;fill-rule:nonzero;stroke:none"
       transform="matrix(1.3333333,0,0,-1.3333333,1007.8121,106.41227)"
       clip-path="url(#clipPath18)" />
    <path
       id="path19"
       d="m 0,0 c 3.532,0 6.171,0.73 7.918,2.193 1.746,1.461 2.621,3.732 2.621,6.808 0,2.62 -0.769,4.557 -2.308,5.81 -1.538,1.253 -3.844,1.879 -6.92,1.879 H -11.108 L -12.418,0 Z m 5.27,-4.102 c 0.664,-0.721 1.261,-1.69 1.793,-2.905 L 13.159,-20.45 H 9.343 L 3.589,-7.576 c -0.76,1.746 -1.737,2.942 -2.934,3.589 -1.196,0.645 -2.84,0.968 -4.927,0.968 h -8.374 l -1.368,-17.431 h -3.531 l 3.133,40.16 H 1.367 c 4.064,0 7.187,-0.893 9.371,-2.678 2.183,-1.785 3.276,-4.386 3.276,-7.803 0,-3.418 -0.941,-6.144 -2.821,-8.175 C 9.313,-0.979 6.551,-2.185 2.905,-2.563 3.816,-2.868 4.604,-3.38 5.27,-4.102"
       style="fill:#000000;fill-opacity:1;fill-rule:nonzero;stroke:none"
       transform="matrix(1.3333333,0,0,-1.3333333,504.3924,298.5896)"
       clip-path="url(#clipPath20)" />
    <path
       id="path21"
       d="m 0,0 c -1.69,-1.652 -2.744,-3.997 -3.162,-7.035 h 17.717 c 0.113,3.113 -0.533,5.477 -1.938,7.092 C 11.212,1.671 9.257,2.478 6.75,2.478 3.939,2.478 1.689,1.652 0,0 m -3.39,-9.599 v -0.569 c 0,-3.19 0.798,-5.678 2.393,-7.463 1.595,-1.785 3.893,-2.677 6.893,-2.677 3.607,0 6.702,1.101 9.285,3.304 l 1.139,-2.678 c -1.139,-1.138 -2.677,-2.042 -4.614,-2.706 -1.936,-0.663 -3.912,-0.996 -5.924,-0.996 -3.95,0 -7.064,1.205 -9.343,3.617 -2.278,2.412 -3.418,5.649 -3.418,9.712 0,3.038 0.551,5.716 1.653,8.033 1.1,2.316 2.677,4.12 4.727,5.412 2.051,1.29 4.444,1.936 7.178,1.936 3.455,0 6.181,-1.025 8.175,-3.076 1.993,-2.051 2.99,-5.07 2.99,-9.058 0,-0.874 -0.057,-1.803 -0.171,-2.791 z"
       style="fill:#000000;fill-opacity:1;fill-rule:nonzero;stroke:none"
       transform="matrix(1.3333333,0,0,-1.3333333,537.81173,295.20947)"
       clip-path="url(#clipPath22)" />
    <path
       id="path23"
       d="m 0,0 c -1.88,0.646 -3.484,1.557 -4.813,2.734 l 1.538,2.678 C -1.757,4.234 -0.285,3.38 1.14,2.849 2.563,2.316 4.167,2.051 5.953,2.051 c 4.899,0 7.348,1.538 7.348,4.614 0,0.987 -0.304,1.795 -0.911,2.421 -0.608,0.627 -1.368,1.12 -2.279,1.481 -0.911,0.361 -2.146,0.769 -3.703,1.225 -1.936,0.569 -3.494,1.11 -4.671,1.623 -1.177,0.513 -2.184,1.273 -3.018,2.279 -0.836,1.006 -1.254,2.326 -1.254,3.959 0,2.506 0.959,4.481 2.877,5.924 1.917,1.444 4.49,2.165 7.719,2.165 1.936,0 3.75,-0.323 5.44,-0.969 1.689,-0.645 3.085,-1.538 4.186,-2.676 l -1.481,-2.678 c -2.544,2.202 -5.24,3.304 -8.089,3.304 -2.278,0 -4.025,-0.418 -5.24,-1.253 -1.216,-0.836 -1.823,-2.051 -1.823,-3.646 0,-0.988 0.303,-1.786 0.911,-2.392 0.607,-0.609 1.339,-1.092 2.193,-1.453 0.855,-0.362 2.098,-0.789 3.732,-1.282 1.898,-0.532 3.446,-1.053 4.642,-1.566 1.197,-0.513 2.212,-1.282 3.048,-2.308 0.835,-1.025 1.253,-2.354 1.253,-3.987 0,-2.393 -0.997,-4.292 -2.99,-5.696 C 11.849,-0.266 9.2,-0.968 5.896,-0.968 3.845,-0.968 1.88,-0.645 0,0"
       style="fill:#000000;fill-opacity:1;fill-rule:nonzero;stroke:none"
       transform="matrix(1.3333333,0,0,-1.3333333,572.50573,325.09747)"
       clip-path="url(#clipPath24)" />
    <path
       id="path25"
       d="m 0,0 c 1.688,2.202 2.534,5.221 2.534,9.058 0,3.226 -0.778,5.743 -2.335,7.547 -1.557,1.803 -3.741,2.706 -6.551,2.706 -2.924,0 -5.232,-1.111 -6.921,-3.332 -1.691,-2.222 -2.536,-5.27 -2.536,-9.143 0,-3.305 0.77,-5.82 2.308,-7.548 1.538,-1.728 3.731,-2.592 6.579,-2.592 2.924,0 5.232,1.101 6.922,3.304 M 0.483,20.678 C 2.269,19.576 3.654,18.02 4.643,16.007 5.629,13.993 6.123,11.64 6.123,8.943 6.123,5.904 5.582,3.228 4.5,0.911 3.417,-1.405 1.898,-3.2 -0.058,-4.472 -2.014,-5.745 -4.264,-6.38 -6.808,-6.38 c -2.241,0 -4.197,0.503 -5.867,1.509 -1.672,1.006 -2.905,2.402 -3.703,4.187 l -1.253,-15.551 h -3.474 l 2.961,37.881 h 3.475 l -0.342,-4.386 c 0.911,1.595 2.202,2.839 3.874,3.731 1.67,0.892 3.493,1.339 5.469,1.339 2.315,0 4.366,-0.551 6.151,-1.652"
       style="fill:#000000;fill-opacity:1;fill-rule:nonzero;stroke:none"
       transform="matrix(1.3333333,0,0,-1.3333333,628.99147,317.88133)"
       clip-path="url(#clipPath26)" />
    <path
       id="path27"
       d="m 0,0 c -1.69,-1.652 -2.744,-3.997 -3.162,-7.035 h 17.717 c 0.113,3.113 -0.533,5.477 -1.938,7.092 C 11.212,1.671 9.257,2.478 6.75,2.478 3.939,2.478 1.689,1.652 0,0 m -3.39,-9.599 v -0.569 c 0,-3.19 0.798,-5.678 2.393,-7.463 1.595,-1.785 3.893,-2.677 6.893,-2.677 3.607,0 6.702,1.101 9.285,3.304 l 1.139,-2.678 c -1.139,-1.138 -2.677,-2.042 -4.614,-2.706 -1.936,-0.663 -3.912,-0.996 -5.924,-0.996 -3.95,0 -7.064,1.205 -9.343,3.617 -2.278,2.412 -3.418,5.649 -3.418,9.712 0,3.038 0.551,5.716 1.653,8.033 1.1,2.316 2.677,4.12 4.727,5.412 2.051,1.29 4.444,1.936 7.178,1.936 3.455,0 6.181,-1.025 8.175,-3.076 1.993,-2.051 2.99,-5.07 2.99,-9.058 0,-0.874 -0.057,-1.803 -0.171,-2.791 z"
       style="fill:#000000;fill-opacity:1;fill-rule:nonzero;stroke:none"
       transform="matrix(1.3333333,0,0,-1.3333333,652.73493,295.20947)"
       clip-path="url(#clipPath28)" />
    <path
       id="path29"
       d="M 0,0 H 4.558 L 4.216,-4.387 h -4.558 z m -2.563,-39.306 2.165,27.628 H 3.076 L 0.911,-39.306 Z"
       style="fill:#000000;fill-opacity:1;fill-rule:nonzero;stroke:none"
       transform="matrix(1.3333333,0,0,-1.3333333,686.28827,273.44893)"
       clip-path="url(#clipPath30)" />
    <path
       id="path31"
       d="m 0,0 c -0.038,-0.267 -0.058,-0.646 -0.058,-1.14 0,-1.974 0.503,-3.474 1.51,-4.5 1.006,-1.025 2.479,-1.538 4.415,-1.538 0.911,0 1.728,0.075 2.449,0.228 L 7.918,-9.855 c -0.76,-0.152 -1.595,-0.228 -2.507,-0.228 -2.848,0 -5.051,0.74 -6.607,2.222 -1.558,1.481 -2.336,3.589 -2.336,6.323 0,0.531 0.018,0.948 0.057,1.253 l 1.196,15.381 h -5.468 l 0.227,2.791 h 5.469 l 0.684,8.545 H 2.107 L 1.424,17.887 H 9.513 L 9.342,15.096 H 1.196 Z"
       style="fill:#000000;fill-opacity:1;fill-rule:nonzero;stroke:none"
       transform="matrix(1.3333333,0,0,-1.3333333,706.49133,312.86827)"
       clip-path="url(#clipPath32)" />
    <path
       id="path33"
       d="m 0,0 c 1.671,2.222 2.507,5.25 2.507,9.086 0,3.227 -0.778,5.733 -2.336,7.519 -1.558,1.785 -3.722,2.677 -6.493,2.677 -2.963,0 -5.28,-1.11 -6.95,-3.332 -1.672,-2.221 -2.506,-5.289 -2.506,-9.2 0,-3.267 0.758,-5.763 2.278,-7.49 1.519,-1.729 3.721,-2.592 6.607,-2.592 2.924,0 5.222,1.11 6.893,3.332 m -13.586,-4.757 c -1.88,1.102 -3.323,2.658 -4.329,4.672 -1.007,2.012 -1.51,4.348 -1.51,7.006 0,3.076 0.541,5.772 1.624,8.089 1.082,2.316 2.62,4.11 4.614,5.384 1.994,1.271 4.282,1.908 6.865,1.908 2.506,0 4.699,-0.551 6.579,-1.653 1.88,-1.101 3.322,-2.658 4.329,-4.67 1.006,-2.014 1.51,-4.368 1.51,-7.064 C 6.096,5.876 5.555,3.199 4.472,0.883 3.39,-1.434 1.852,-3.229 -0.142,-4.5 c -1.994,-1.273 -4.3,-1.908 -6.921,-1.908 -2.469,0 -4.643,0.55 -6.523,1.651"
       style="fill:#000000;fill-opacity:1;fill-rule:nonzero;stroke:none"
       transform="matrix(1.3333333,0,0,-1.3333333,747.12547,317.84347)"
       clip-path="url(#clipPath34)" />
    <path
       id="path35"
       d="m 0,0 c -1.69,-1.652 -2.744,-3.997 -3.162,-7.035 h 17.717 c 0.113,3.113 -0.533,5.477 -1.938,7.092 C 11.212,1.671 9.257,2.478 6.75,2.478 3.939,2.478 1.689,1.652 0,0 m -3.39,-9.599 v -0.569 c 0,-3.19 0.798,-5.678 2.393,-7.463 1.595,-1.785 3.893,-2.677 6.893,-2.677 3.607,0 6.702,1.101 9.285,3.304 l 1.139,-2.678 c -1.139,-1.138 -2.677,-2.042 -4.614,-2.706 -1.936,-0.663 -3.912,-0.996 -5.924,-0.996 -3.95,0 -7.064,1.205 -9.343,3.617 -2.278,2.412 -3.418,5.649 -3.418,9.712 0,3.038 0.551,5.716 1.653,8.033 1.1,2.316 2.677,4.12 4.727,5.412 2.051,1.29 4.444,1.936 7.178,1.936 3.455,0 6.181,-1.025 8.175,-3.076 1.993,-2.051 2.99,-5.07 2.99,-9.058 0,-0.874 -0.057,-1.803 -0.171,-2.791 z"
       style="fill:#000000;fill-opacity:1;fill-rule:nonzero;stroke:none"
       transform="matrix(1.3333333,0,0,-1.3333333,791.06427,295.20947)"
       clip-path="url(#clipPath36)" />
    <path
       id="path37"
       d="M 0,0 H 4.558 L 4.216,-4.387 h -4.558 z m -2.563,-39.306 2.165,27.628 H 3.076 L 0.911,-39.306 Z"
       style="fill:#000000;fill-opacity:1;fill-rule:nonzero;stroke:none"
       transform="matrix(1.3333333,0,0,-1.3333333,845.18013,273.44893)"
       clip-path="url(#clipPath38)" />
    <path
       id="path39"
       d="m 0,0 c 1.632,-1.558 2.449,-3.873 2.449,-6.949 0,-0.684 -0.019,-1.197 -0.056,-1.538 L 1.025,-25.976 H -2.45 l 1.367,17.261 c 0.038,0.303 0.058,0.74 0.058,1.31 0,4.443 -2.204,6.665 -6.609,6.665 -2.81,0 -5.041,-0.818 -6.693,-2.449 -1.652,-1.634 -2.592,-3.894 -2.819,-6.78 L -18.4,-25.976 h -3.475 l 2.165,27.628 h 3.418 l -0.342,-4.5 c 0.948,1.632 2.25,2.906 3.903,3.817 1.651,0.911 3.54,1.367 5.668,1.367 C -3.988,2.336 -1.634,1.557 0,0"
       style="fill:#000000;fill-opacity:1;fill-rule:nonzero;stroke:none"
       transform="matrix(1.3333333,0,0,-1.3333333,886.102,291.2224)"
       clip-path="url(#clipPath40)" />
    <path
       id="path41"
       d="m 0,0 c -1.88,1.102 -3.323,2.658 -4.329,4.672 -1.007,2.012 -1.51,4.348 -1.51,7.006 0,3.076 0.551,5.772 1.652,8.089 1.101,2.316 2.687,4.11 4.757,5.383 2.07,1.272 4.491,1.909 7.263,1.909 1.974,0 3.816,-0.324 5.525,-0.969 1.709,-0.646 3.171,-1.538 4.387,-2.677 l -1.538,-2.734 c -1.444,1.176 -2.82,2.031 -4.13,2.563 -1.31,0.531 -2.744,0.797 -4.301,0.797 -3.153,0 -5.602,-1.102 -7.348,-3.304 -1.747,-2.203 -2.62,-5.259 -2.62,-9.171 0,-3.153 0.787,-5.63 2.363,-7.434 1.576,-1.804 3.807,-2.705 6.693,-2.705 1.482,0 2.839,0.256 4.074,0.768 1.233,0.513 2.572,1.358 4.015,2.536 l 1.14,-2.678 C 14.915,0.912 13.491,0.009 11.82,-0.655 10.148,-1.318 8.383,-1.651 6.522,-1.651 4.054,-1.651 1.88,-1.102 0,0"
       style="fill:#000000;fill-opacity:1;fill-rule:nonzero;stroke:none"
       transform="matrix(1.3333333,0,0,-1.3333333,904.63333,324.186)"
       clip-path="url(#clipPath42)" />
    <path
       id="path43"
       d="M 0,0 3.19,40.16 H 6.665 L 3.475,0 Z"
       style="fill:#000000;fill-opacity:1;fill-rule:nonzero;stroke:none"
       transform="matrix(1.3333333,0,0,-1.3333333,932.37813,325.85653)"
       clip-path="url(#clipPath44)" />
    <path
       id="path45"
       d="m 0,0 -2.222,-27.628 h -3.36 l 0.342,4.842 c -0.95,-1.671 -2.232,-2.962 -3.846,-3.873 -1.614,-0.912 -3.428,-1.367 -5.439,-1.367 -3.039,0 -5.366,0.787 -6.979,2.363 -1.614,1.576 -2.421,3.902 -2.421,6.978 0,0.646 0.019,1.14 0.057,1.482 L -22.501,0 h 3.475 l -1.368,-16.919 c -0.038,-0.304 -0.056,-0.76 -0.056,-1.367 0,-4.443 2.145,-6.664 6.437,-6.664 2.696,0 4.861,0.815 6.493,2.449 1.633,1.632 2.564,3.911 2.792,6.836 L -3.475,0 Z"
       style="fill:#000000;fill-opacity:1;fill-rule:nonzero;stroke:none"
       transform="matrix(1.3333333,0,0,-1.3333333,979.87813,289.01933)"
       clip-path="url(#clipPath46)" />
    <path
       id="path47"
       d="m 0,0 c -1.88,0.646 -3.484,1.557 -4.813,2.734 l 1.538,2.678 C -1.757,4.234 -0.285,3.38 1.14,2.849 2.563,2.316 4.167,2.051 5.953,2.051 c 4.899,0 7.348,1.538 7.348,4.614 0,0.987 -0.304,1.795 -0.911,2.421 -0.608,0.627 -1.368,1.12 -2.279,1.481 -0.911,0.361 -2.146,0.769 -3.703,1.225 -1.936,0.569 -3.494,1.11 -4.671,1.623 -1.177,0.513 -2.184,1.273 -3.018,2.279 -0.836,1.006 -1.254,2.326 -1.254,3.959 0,2.506 0.959,4.481 2.877,5.924 1.917,1.444 4.49,2.165 7.719,2.165 1.936,0 3.75,-0.323 5.44,-0.969 1.689,-0.645 3.085,-1.538 4.186,-2.676 l -1.481,-2.678 c -2.544,2.202 -5.24,3.304 -8.089,3.304 -2.278,0 -4.025,-0.418 -5.24,-1.253 -1.216,-0.836 -1.823,-2.051 -1.823,-3.646 0,-0.988 0.303,-1.786 0.911,-2.392 0.607,-0.609 1.339,-1.092 2.193,-1.453 0.855,-0.362 2.098,-0.789 3.732,-1.282 1.898,-0.532 3.446,-1.053 4.642,-1.566 1.197,-0.513 2.212,-1.282 3.048,-2.308 0.835,-1.025 1.253,-2.354 1.253,-3.987 0,-2.393 -0.997,-4.292 -2.99,-5.696 C 11.849,-0.266 9.2,-0.968 5.896,-0.968 3.845,-0.968 1.88,-0.645 0,0"
       style="fill:#000000;fill-opacity:1;fill-rule:nonzero;stroke:none"
       transform="matrix(1.3333333,0,0,-1.3333333,991.35467,325.09747)"
       clip-path="url(#clipPath48)" />
    <path
       id="path49"
       d="m 0,0 c 0.931,1.025 2.155,1.538 3.675,1.538 0.797,0 1.547,-0.162 2.25,-0.484 0.702,-0.323 1.528,-0.788 2.477,-1.396 0.798,-0.493 1.434,-0.854 1.909,-1.082 0.474,-0.227 0.94,-0.342 1.395,-0.342 0.874,0 1.567,0.286 2.08,0.855 0.513,0.569 0.806,1.329 0.883,2.278 h 2.222 c -0.115,-1.936 -0.647,-3.418 -1.596,-4.443 -0.949,-1.026 -2.164,-1.538 -3.646,-1.538 -0.797,0 -1.547,0.161 -2.25,0.484 C 8.696,-3.808 7.87,-3.342 6.922,-2.734 6.199,-2.278 5.592,-1.928 5.099,-1.68 4.604,-1.434 4.13,-1.31 3.675,-1.31 2.801,-1.31 2.108,-1.595 1.596,-2.164 1.083,-2.734 0.788,-3.494 0.712,-4.443 H -1.51 C -1.434,-2.506 -0.931,-1.025 0,0 m 9.485,-33.638 c 1.632,1.615 2.543,3.712 2.734,6.295 l 0.171,2.051 h -1.652 c -3.722,0 -6.551,-0.19 -8.488,-0.569 -1.937,-0.381 -3.267,-0.969 -3.987,-1.767 -0.722,-0.797 -1.082,-1.899 -1.082,-3.304 0,-1.557 0.569,-2.8 1.709,-3.731 1.138,-0.931 2.676,-1.396 4.614,-1.396 2.353,0 4.348,0.807 5.981,2.421 m 6.722,14.157 c 0,-0.609 -0.02,-1.082 -0.058,-1.424 l -1.423,-17.774 h -3.418 l 0.398,4.729 c -0.911,-1.672 -2.127,-2.945 -3.645,-3.818 -1.52,-0.874 -3.229,-1.309 -5.127,-1.309 -2.773,0 -5.033,0.74 -6.779,2.222 -1.747,1.48 -2.62,3.378 -2.62,5.696 0,2.051 0.55,3.692 1.652,4.928 1.101,1.233 2.885,2.126 5.354,2.676 2.469,0.55 5.811,0.826 10.026,0.826 h 1.994 l 0.17,1.937 c 0.039,0.304 0.058,0.721 0.058,1.254 0,2.126 -0.494,3.683 -1.481,4.671 -0.989,0.987 -2.545,1.48 -4.671,1.48 -3.229,0 -6.4,-1.006 -9.514,-3.018 l -1.139,2.734 c 1.368,0.986 3.048,1.784 5.041,2.393 1.995,0.606 3.903,0.911 5.726,0.911 6.303,0 9.456,-3.039 9.456,-9.114"
       style="fill:#000000;fill-opacity:1;fill-rule:nonzero;stroke:none"
       transform="matrix(1.3333333,0,0,-1.3333333,1029.3911,274.28493)"
       clip-path="url(#clipPath50)" />
    <path
       id="path51"
       d="m 0,0 c 1.671,2.222 2.507,5.25 2.507,9.086 0,3.227 -0.778,5.733 -2.336,7.519 -1.558,1.785 -3.722,2.677 -6.493,2.677 -2.963,0 -5.28,-1.11 -6.95,-3.332 -1.672,-2.221 -2.506,-5.289 -2.506,-9.2 0,-3.267 0.758,-5.763 2.278,-7.49 1.519,-1.729 3.721,-2.592 6.607,-2.592 2.924,0 5.222,1.11 6.893,3.332 m -13.586,-4.757 c -1.88,1.102 -3.323,2.658 -4.329,4.672 -1.007,2.012 -1.51,4.348 -1.51,7.006 0,3.076 0.541,5.772 1.624,8.089 1.082,2.316 2.62,4.11 4.614,5.384 1.994,1.271 4.282,1.908 6.865,1.908 2.506,0 4.699,-0.551 6.579,-1.653 1.88,-1.101 3.322,-2.658 4.329,-4.67 1.006,-2.014 1.51,-4.368 1.51,-7.064 C 6.096,5.876 5.555,3.199 4.472,0.883 3.39,-1.434 1.852,-3.229 -0.142,-4.5 c -1.994,-1.273 -4.3,-1.908 -6.921,-1.908 -2.469,0 -4.643,0.55 -6.523,1.651"
       style="fill:#000000;fill-opacity:1;fill-rule:nonzero;stroke:none"
       transform="matrix(1.3333333,0,0,-1.3333333,1084.3195,317.84347)"
       clip-path="url(#clipPath52)" />
    <path
       style="fill:#241c1f;fill-opacity:0;stroke-width:1"
       d="m 343.3284,350.75134 c -5.92259,-2.16279 -7.81104,-4.45082 -18.19392,-22.0436 -6.13941,-10.40264 -12.92689,-18.37448 -17.73166,-20.8257 -1.80584,-0.92127 -7.95495,-3.30336 -13.66469,-5.29353 -5.70972,-1.99017 -13.00098,-5.07337 -16.20278,-6.85156 -7.97642,-4.42988 -18.29824,-14.92112 -23.30982,-23.69245 -5.21737,-9.13148 -7.4094,-11.57463 -12.2554,-13.65932 -10.12007,-4.35354 -20.39499,-4.09967 -42.03645,1.03862 -24.29477,5.76825 -29.46544,5.81691 -45.94277,0.43237 -15.98769,-5.22454 -28.07628,-12.7505 -39.60342,-24.6558 l -7.35718,-7.59853 -9.194716,-0.60676 c -11.092963,-0.73203 -16.774943,-2.28204 -26.22108,-7.15295 -14.031927,-7.23558 -25.228915,-18.09345 -31.219832,-30.2743 -4.898457,-9.95963 -6.155565,-15.91095 -5.60599,-26.5395 1.67183,-32.33245 25.16702,-72.159872 58.302213,-98.829873 C 154.41393,14.840506 238.52902,10.660036 322.68657,52.787688 c 58.55214,29.310069 93.84457,71.093992 91.62366,108.476372 -0.7103,11.95567 -4.71841,20.90104 -14.32881,31.97934 -10.78679,12.43437 -12.1934,16.15543 -15.33104,40.55692 -2.41667,18.79448 -4.36791,26.63827 -8.65698,34.8004 -5.69162,10.83116 -14.2789,18.33717 -30.10617,26.31532 -8.3564,4.21226 -8.45969,4.30134 -8.72667,7.52647 -0.26322,3.17979 4e-5,3.5255 10.23403,13.43895 6.02909,5.84024 11.25912,11.68642 12.27615,13.72237 2.45687,4.91834 2.40242,11.70509 -0.12375,15.42237 -3.2805,4.82727 -11.10945,7.59089 -16.21859,5.72514 z m -16.65527,-72.2278 c 15.46452,-3.83891 26.58391,-9.7298 31.69624,-16.79222 2.28992,-3.16339 2.65203,-4.37133 2.65203,-8.84649 0,-6.00432 -1.62945,-8.9319 -7.06982,-12.70208 -5.06662,-3.51117 -9.05216,-4.61955 -16.75791,-4.6604 -8.19313,-0.0434 -8.27672,-0.13643 -7.07263,-7.87046 1.5749,-10.11598 -2.03415,-17.61309 -10.437,-21.68084 -7.6893,-3.72233 -16.09156,-1.24709 -24.37949,7.18203 -12.40656,12.61791 -21.69764,39.44038 -18.17294,52.46358 1.7653,6.52246 7.70492,11.51633 16.90916,14.21674 5.5208,1.61974 23.78401,0.88665 32.63236,-1.30986 z m -63.43836,-26.39832 c 0.21972,-1.04263 0.84306,-4.7392 1.38521,-8.21461 2.47437,-15.86178 7.72473,-25.71084 20.3696,-38.21097 9.15181,-9.04705 9.24507,-9.179 8.80516,-12.45876 -1.14302,-8.52189 -11.53103,-15.34957 -29.23125,-19.2127 -4.19048,-0.91458 -10.9308,-3.20695 -14.97849,-5.09413 -6.48636,-3.0242 -8.32297,-4.42763 -15.48136,-11.82994 -7.36769,-7.61876 -8.40745,-8.39868 -11.19678,-8.39868 -2.62638,0 -3.92984,0.80298 -8.93648,5.50519 -3.2239,3.02785 -7.49902,6.20705 -9.50028,7.06489 -3.67083,1.57351 -12.22958,3.61848 -28.27679,6.7563 -14.38346,2.81249 -22.96398,7.78485 -31.77226,18.41183 -11.52371,13.90306 -15.89109,32.64823 -9.64904,41.41439 5.01586,7.04413 15.92432,13.73763 26.99254,16.56279 7.79043,1.98852 26.05612,1.18325 41.28366,-1.82003 13.99059,-2.75933 27.62067,-3.12834 34.19295,-0.92572 2.35584,0.78952 8.23244,3.8794 13.05912,6.86637 9.49136,5.87371 12.2886,6.64875 12.93449,3.58378 z m 99.79282,-30.21157 c 3.42483,-1.1939 4.63501,-3.6184 7.17789,-14.38027 3.44491,-14.57951 4.72932,-17.09623 12.60846,-24.70574 8.12327,-7.84527 9.63303,-11.10123 10.35277,-22.32688 1.09535,-17.08427 -5.93014,-33.13045 -21.15582,-48.31978 -7.42376,-7.40603 -20.78422,-17.397065 -23.26414,-17.397065 -2.46114,0 -2.66308,1.347213 -1.14079,7.610475 2.69466,11.08684 0.43544,23.29349 -7.27631,39.31408 -4.18727,8.69876 -10.33401,15.42168 -21.17965,23.16503 -11.78057,8.41084 -13.07646,10.43625 -10.35145,16.17878 1.64688,3.47055 4.4343,5.06284 12.67442,7.24013 14.43752,3.81484 22.51395,10.28413 29.34085,23.50227 5.744,11.12143 6.80841,12.00329 12.21377,10.11897 z M 105.97442,207.21813 c 4.90931,-2.04761 8.2912,-5.90805 14.72428,-16.80778 7.40878,-12.55291 11.08176,-17.57775 17.26536,-23.62 9.36324,-9.1492 17.20188,-12.4775 36.60564,-15.54281 11.7568,-1.85728 17.11168,-3.4128 21.68312,-6.29862 5.74491,-3.62661 11.28597,-11.09138 13.76685,-18.54638 0.46701,-1.40336 1.12753,-12.78822 1.46782,-25.2997 0.56293,-20.697208 0.8526,-23.887541 3.21292,-35.385992 2.04149,-9.945216 2.43239,-13.355893 1.83467,-16.00795 -1.59892,-7.094318 -8.22135,-9.861022 -23.4341,-9.790246 -14.44517,0.0672 -30.81011,4.369644 -52.67227,13.847856 -35.38471,15.34082 -66.302764,49.235672 -82.936151,90.921242 -3.032658,7.60026 -3.115969,8.10187 -3.116044,18.76185 -7e-5,9.94488 0.203694,11.43132 2.214253,16.15273 7.427718,17.44255 23.249161,28.84074 40.115887,28.90053 3.681995,0.0131 7.387915,-0.50067 9.267765,-1.28473 z m 193.56201,-50.03296 c 6.97532,-3.43526 19.41527,-15.38776 23.79208,-22.8598 5.15622,-8.80264 6.48161,-13.68603 6.50154,-23.95477 0.0169,-8.73805 -0.13947,-9.60022 -2.73671,-15.084598 -7.67255,-16.201527 -24.53877,-31.976825 -41.92784,-39.215915 -7.89256,-3.28568 -16.93275,-5.643615 -26.54278,-6.923104 -6.89404,-0.917879 -7.50986,-0.868422 -11.00735,0.884018 -4.73395,2.371973 -7.25812,5.616229 -9.81382,12.613421 -3.48645,9.545515 -5.3024,21.080379 -5.31213,33.74261 -0.0191,24.879528 4.09625,38.968678 14.29353,48.934398 9.52747,9.31111 25.69388,15.33229 40.11635,14.94133 5.78629,-0.15686 7.60684,-0.60022 12.63713,-3.07759 z"
       id="path53" />
    <path
       style="fill:#241c1f;fill-opacity:0;stroke-width:1"
       d="m 357.84445,221.0852 c -0.82054,-0.47771 -3.23267,-4.33464 -5.36028,-8.57097 -6.76116,-13.46227 -16.29236,-21.47415 -29.37823,-24.69519 -3.24267,-0.79818 -7.30972,-2.1567 -9.03787,-3.01895 -3.01905,-1.50632 -5.7044,-5.16106 -5.7044,-7.76363 0,-2.19628 4.02292,-6.11556 12.29857,-11.98174 10.34316,-7.33172 16.44926,-14.07338 20.53123,-22.66822 7.7374,-16.29159 10.12727,-29.70658 7.21131,-40.47901 -0.82066,-3.031758 -1.28451,-5.719873 -1.03079,-5.973595 1.61326,-1.613263 14.82479,7.830805 24.22962,17.320195 16.55747,16.70634 23.7306,35.74544 20.08627,53.3135 -1.3069,6.30011 -3.98163,10.47504 -10.25221,16.00244 -6.30149,5.55466 -8.49815,9.97576 -12.02232,24.19669 -2.58401,10.42715 -3.96282,13.35169 -6.8041,14.43194 -2.5923,0.9856 -2.89118,0.97849 -4.7668,-0.11346 z"
       id="path54" />
    <path
       style="fill:#241c1f;fill-opacity:0;stroke-width:1"
       d="m 343.3284,350.75134 c -5.92259,-2.16279 -7.81104,-4.45082 -18.19392,-22.0436 -6.13941,-10.40264 -12.92689,-18.37448 -17.73166,-20.8257 -1.80584,-0.92127 -7.95495,-3.30336 -13.66469,-5.29353 -5.70972,-1.99017 -13.00098,-5.07337 -16.20278,-6.85156 -7.97642,-4.42988 -18.29824,-14.92112 -23.30982,-23.69245 -5.21737,-9.13148 -7.4094,-11.57463 -12.2554,-13.65932 -10.12007,-4.35354 -20.39499,-4.09967 -42.03645,1.03862 -24.29477,5.76825 -29.46544,5.81691 -45.94277,0.43237 -15.98769,-5.22454 -28.07628,-12.7505 -39.60342,-24.6558 l -7.35718,-7.59853 -9.194716,-0.60676 c -11.092963,-0.73203 -16.774943,-2.28204 -26.22108,-7.15295 -14.031927,-7.23558 -25.228915,-18.09345 -31.219832,-30.2743 -4.898457,-9.95963 -6.155565,-15.91095 -5.60599,-26.5395 1.67183,-32.33245 25.16702,-72.159872 58.302213,-98.829873 C 154.41393,14.840506 238.52902,10.660036 322.68657,52.787688 c 58.55214,29.310069 93.84457,71.093992 91.62366,108.476372 -0.7103,11.95567 -4.71841,20.90104 -14.32881,31.97934 -10.78679,12.43437 -12.1934,16.15543 -15.33104,40.55692 -2.41667,18.79448 -4.36791,26.63827 -8.65698,34.8004 -5.69162,10.83116 -14.2789,18.33717 -30.10617,26.31532 -8.3564,4.21226 -8.45969,4.30134 -8.72667,7.52647 -0.26322,3.17979 4e-5,3.5255 10.23403,13.43895 6.02909,5.84024 11.25912,11.68642 12.27615,13.72237 2.45687,4.91834 2.40242,11.70509 -0.12375,15.42237 -3.2805,4.82727 -11.10945,7.59089 -16.21859,5.72514 z m -16.65527,-72.2278 c 15.46452,-3.83891 26.58391,-9.7298 31.69624,-16.79222 2.28992,-3.16339 2.65203,-4.37133 2.65203,-8.84649 0,-6.00432 -1.62945,-8.9319 -7.06982,-12.70208 -5.06662,-3.51117 -9.05216,-4.61955 -16.75791,-4.6604 -8.19313,-0.0434 -8.27672,-0.13643 -7.07263,-7.87046 1.5749,-10.11598 -2.03415,-17.61309 -10.437,-21.68084 -7.6893,-3.72233 -16.09156,-1.24709 -24.37949,7.18203 -12.40656,12.61791 -21.69764,39.44038 -18.17294,52.46358 1.7653,6.52246 7.70492,11.51633 16.90916,14.21674 5.5208,1.61974 23.78401,0.88665 32.63236,-1.30986 z m -63.43836,-26.39832 c 0.21972,-1.04263 0.84306,-4.7392 1.38521,-8.21461 2.47437,-15.86178 7.72473,-25.71084 20.3696,-38.21097 9.15181,-9.04705 9.24507,-9.179 8.80516,-12.45876 -1.14302,-8.52189 -11.53103,-15.34957 -29.23125,-19.2127 -4.19048,-0.91458 -10.9308,-3.20695 -14.97849,-5.09413 -6.48636,-3.0242 -8.32297,-4.42763 -15.48136,-11.82994 -7.36769,-7.61876 -8.40745,-8.39868 -11.19678,-8.39868 -2.62638,0 -3.92984,0.80298 -8.93648,5.50519 -3.2239,3.02785 -7.49902,6.20705 -9.50028,7.06489 -3.67083,1.57351 -12.22958,3.61848 -28.27679,6.7563 -14.38346,2.81249 -22.96398,7.78485 -31.77226,18.41183 -11.52371,13.90306 -15.89109,32.64823 -9.64904,41.41439 5.01586,7.04413 15.92432,13.73763 26.99254,16.56279 7.79043,1.98852 26.05612,1.18325 41.28366,-1.82003 13.99059,-2.75933 27.62067,-3.12834 34.19295,-0.92572 2.35584,0.78952 8.23244,3.8794 13.05912,6.86637 9.49136,5.87371 12.2886,6.64875 12.93449,3.58378 z m 99.79282,-30.21157 c 3.42483,-1.1939 4.63501,-3.6184 7.17789,-14.38027 3.44491,-14.57951 4.72932,-17.09623 12.60846,-24.70574 8.12327,-7.84527 9.63303,-11.10123 10.35277,-22.32688 1.09535,-17.08427 -5.93014,-33.13045 -21.15582,-48.31978 -7.42376,-7.40603 -20.78422,-17.397065 -23.26414,-17.397065 -2.46114,0 -2.66308,1.347213 -1.14079,7.610475 2.69466,11.08684 0.43544,23.29349 -7.27631,39.31408 -4.18727,8.69876 -10.33401,15.42168 -21.17965,23.16503 -11.78057,8.41084 -13.07646,10.43625 -10.35145,16.17878 1.64688,3.47055 4.4343,5.06284 12.67442,7.24013 14.43752,3.81484 22.51395,10.28413 29.34085,23.50227 5.744,11.12143 6.80841,12.00329 12.21377,10.11897 z M 105.97442,207.21813 c 4.90931,-2.04761 8.2912,-5.90805 14.72428,-16.80778 7.40878,-12.55291 11.08176,-17.57775 17.26536,-23.62 9.36324,-9.1492 17.20188,-12.4775 36.60564,-15.54281 11.7568,-1.85728 17.11168,-3.4128 21.68312,-6.29862 5.74491,-3.62661 11.28597,-11.09138 13.76685,-18.54638 0.46701,-1.40336 1.12753,-12.78822 1.46782,-25.2997 0.56293,-20.697208 0.8526,-23.887541 3.21292,-35.385992 2.04149,-9.945216 2.43239,-13.355893 1.83467,-16.00795 -1.59892,-7.094318 -8.22135,-9.861022 -23.4341,-9.790246 -14.44517,0.0672 -30.81011,4.369644 -52.67227,13.847856 -35.38471,15.34082 -66.302764,49.235672 -82.936151,90.921242 -3.032658,7.60026 -3.115969,8.10187 -3.116044,18.76185 -7e-5,9.94488 0.203694,11.43132 2.214253,16.15273 7.427718,17.44255 23.249161,28.84074 40.115887,28.90053 3.681995,0.0131 7.387915,-0.50067 9.267765,-1.28473 z m 193.56201,-50.03296 c 6.97532,-3.43526 19.41527,-15.38776 23.79208,-22.8598 5.15622,-8.80264 6.48161,-13.68603 6.50154,-23.95477 0.0169,-8.73805 -0.13947,-9.60022 -2.73671,-15.084598 -7.67255,-16.201527 -24.53877,-31.976825 -41.92784,-39.215915 -7.89256,-3.28568 -16.93275,-5.643615 -26.54278,-6.923104 -6.89404,-0.917879 -7.50986,-0.868422 -11.00735,0.884018 -4.73395,2.371973 -7.25812,5.616229 -9.81382,12.613421 -3.48645,9.545515 -5.3024,21.080379 -5.31213,33.74261 -0.0191,24.879528 4.09625,38.968678 14.29353,48.934398 9.52747,9.31111 25.69388,15.33229 40.11635,14.94133 5.78629,-0.15686 7.60684,-0.60022 12.63713,-3.07759 z"
       id="path55" />
    <path
       style="fill:#241c1f;fill-opacity:0;stroke-width:1"
       d="m 343.3284,350.75134 c -5.92259,-2.16279 -7.81104,-4.45082 -18.19392,-22.0436 -6.13941,-10.40264 -12.92689,-18.37448 -17.73166,-20.8257 -1.80584,-0.92127 -7.95495,-3.30336 -13.66469,-5.29353 -5.70972,-1.99017 -13.00098,-5.07337 -16.20278,-6.85156 -7.97642,-4.42988 -18.29824,-14.92112 -23.30982,-23.69245 -5.21737,-9.13148 -7.4094,-11.57463 -12.2554,-13.65932 -10.12007,-4.35354 -20.39499,-4.09967 -42.03645,1.03862 -24.29477,5.76825 -29.46544,5.81691 -45.94277,0.43237 -15.98769,-5.22454 -28.07628,-12.7505 -39.60342,-24.6558 l -7.35718,-7.59853 -9.194716,-0.60676 c -11.092963,-0.73203 -16.774943,-2.28204 -26.22108,-7.15295 -14.031927,-7.23558 -25.228915,-18.09345 -31.219832,-30.2743 -4.898457,-9.95963 -6.155565,-15.91095 -5.60599,-26.5395 1.67183,-32.33245 25.16702,-72.159872 58.302213,-98.829873 C 154.41393,14.840506 238.52902,10.660036 322.68657,52.787688 c 58.55214,29.310069 93.84457,71.093992 91.62366,108.476372 -0.7103,11.95567 -4.71841,20.90104 -14.32881,31.97934 -10.78679,12.43437 -12.1934,16.15543 -15.33104,40.55692 -2.41667,18.79448 -4.36791,26.63827 -8.65698,34.8004 -5.69162,10.83116 -14.2789,18.33717 -30.10617,26.31532 -8.3564,4.21226 -8.45969,4.30134 -8.72667,7.52647 -0.26322,3.17979 4e-5,3.5255 10.23403,13.43895 6.02909,5.84024 11.25912,11.68642 12.27615,13.72237 2.45687,4.91834 2.40242,11.70509 -0.12375,15.42237 -3.2805,4.82727 -11.10945,7.59089 -16.21859,5.72514 z m -16.65527,-72.2278 c 15.46452,-3.83891 26.58391,-9.7298 31.69624,-16.79222 2.28992,-3.16339 2.65203,-4.37133 2.65203,-8.84649 0,-6.00432 -1.62945,-8.9319 -7.06982,-12.70208 -5.06662,-3.51117 -9.05216,-4.61955 -16.75791,-4.6604 -8.19313,-0.0434 -8.27672,-0.13643 -7.07263,-7.87046 1.5749,-10.11598 -2.03415,-17.61309 -10.437,-21.68084 -7.6893,-3.72233 -16.09156,-1.24709 -24.37949,7.18203 -12.40656,12.61791 -21.69764,39.44038 -18.17294,52.46358 1.7653,6.52246 7.70492,11.51633 16.90916,14.21674 5.5208,1.61974 23.78401,0.88665 32.63236,-1.30986 z m -63.43836,-26.39832 c 0.21972,-1.04263 0.84306,-4.7392 1.38521,-8.21461 2.47437,-15.86178 7.72473,-25.71084 20.3696,-38.21097 9.15181,-9.04705 9.24507,-9.179 8.80516,-12.45876 -1.14302,-8.52189 -11.53103,-15.34957 -29.23125,-19.2127 -4.19048,-0.91458 -10.9308,-3.20695 -14.97849,-5.09413 -6.48636,-3.0242 -8.32297,-4.42763 -15.48136,-11.82994 -7.36769,-7.61876 -8.40745,-8.39868 -11.19678,-8.39868 -2.62638,0 -3.92984,0.80298 -8.93648,5.50519 -3.2239,3.02785 -7.49902,6.20705 -9.50028,7.06489 -3.67083,1.57351 -12.22958,3.61848 -28.27679,6.7563 -14.38346,2.81249 -22.96398,7.78485 -31.77226,18.41183 -11.52371,13.90306 -15.89109,32.64823 -9.64904,41.41439 5.01586,7.04413 15.92432,13.73763 26.99254,16.56279 7.79043,1.98852 26.05612,1.18325 41.28366,-1.82003 13.99059,-2.75933 27.62067,-3.12834 34.19295,-0.92572 2.35584,0.78952 8.23244,3.8794 13.05912,6.86637 9.49136,5.87371 12.2886,6.64875 12.93449,3.58378 z m 99.79282,-30.21157 c 3.42483,-1.1939 4.63501,-3.6184 7.17789,-14.38027 3.44491,-14.57951 4.72932,-17.09623 12.60846,-24.70574 8.12327,-7.84527 9.63303,-11.10123 10.35277,-22.32688 1.09535,-17.08427 -5.93014,-33.13045 -21.15582,-48.31978 -7.42376,-7.40603 -20.78422,-17.397065 -23.26414,-17.397065 -2.46114,0 -2.66308,1.347213 -1.14079,7.610475 2.69466,11.08684 0.43544,23.29349 -7.27631,39.31408 -4.18727,8.69876 -10.33401,15.42168 -21.17965,23.16503 -11.78057,8.41084 -13.07646,10.43625 -10.35145,16.17878 1.64688,3.47055 4.4343,5.06284 12.67442,7.24013 14.43752,3.81484 22.51395,10.28413 29.34085,23.50227 5.744,11.12143 6.80841,12.00329 12.21377,10.11897 z M 105.97442,207.21813 c 4.90931,-2.04761 8.2912,-5.90805 14.72428,-16.80778 7.40878,-12.55291 11.08176,-17.57775 17.26536,-23.62 9.36324,-9.1492 17.20188,-12.4775 36.60564,-15.54281 11.7568,-1.85728 17.11168,-3.4128 21.68312,-6.29862 5.74491,-3.62661 11.28597,-11.09138 13.76685,-18.54638 0.46701,-1.40336 1.12753,-12.78822 1.46782,-25.2997 0.56293,-20.697208 0.8526,-23.887541 3.21292,-35.385992 2.04149,-9.945216 2.43239,-13.355893 1.83467,-16.00795 -1.59892,-7.094318 -8.22135,-9.861022 -23.4341,-9.790246 -14.44517,0.0672 -30.81011,4.369644 -52.67227,13.847856 -35.38471,15.34082 -66.302764,49.235672 -82.936151,90.921242 -3.032658,7.60026 -3.115969,8.10187 -3.116044,18.76185 -7e-5,9.94488 0.203694,11.43132 2.214253,16.15273 7.427718,17.44255 23.249161,28.84074 40.115887,28.90053 3.681995,0.0131 7.387915,-0.50067 9.267765,-1.28473 z m 193.56201,-50.03296 c 6.97532,-3.43526 19.41527,-15.38776 23.79208,-22.8598 5.15622,-8.80264 6.48161,-13.68603 6.50154,-23.95477 0.0169,-8.73805 -0.13947,-9.60022 -2.73671,-15.084598 -7.67255,-16.201527 -24.53877,-31.976825 -41.92784,-39.215915 -7.89256,-3.28568 -16.93275,-5.643615 -26.54278,-6.923104 -6.89404,-0.917879 -7.50986,-0.868422 -11.00735,0.884018 -4.73395,2.371973 -7.25812,5.616229 -9.81382,12.613421 -3.48645,9.545515 -5.3024,21.080379 -5.31213,33.74261 -0.0191,24.879528 4.09625,38.968678 14.29353,48.934398 9.52747,9.31111 25.69388,15.33229 40.11635,14.94133 5.78629,-0.15686 7.60684,-0.60022 12.63713,-3.07759 z"
       id="path56" />
    <path
       style="fill:#241c1f;fill-opacity:0;stroke-width:1"
       d="m 343.3284,350.75134 c -5.92259,-2.16279 -7.81104,-4.45082 -18.19392,-22.0436 -6.13941,-10.40264 -12.92689,-18.37448 -17.73166,-20.8257 -1.80584,-0.92127 -7.95495,-3.30336 -13.66469,-5.29353 -5.70972,-1.99017 -13.00098,-5.07337 -16.20278,-6.85156 -7.97642,-4.42988 -18.29824,-14.92112 -23.30982,-23.69245 -5.21737,-9.13148 -7.4094,-11.57463 -12.2554,-13.65932 -10.12007,-4.35354 -20.39499,-4.09967 -42.03645,1.03862 -24.29477,5.76825 -29.46544,5.81691 -45.94277,0.43237 -15.98769,-5.22454 -28.07628,-12.7505 -39.60342,-24.6558 l -7.35718,-7.59853 -9.194716,-0.60676 c -11.092963,-0.73203 -16.774943,-2.28204 -26.22108,-7.15295 -14.031927,-7.23558 -25.228915,-18.09345 -31.219832,-30.2743 -4.898457,-9.95963 -6.155565,-15.91095 -5.60599,-26.5395 1.67183,-32.33245 25.16702,-72.159872 58.302213,-98.829873 C 154.41393,14.840506 238.52902,10.660036 322.68657,52.787688 c 58.55214,29.310069 93.84457,71.093992 91.62366,108.476372 -0.7103,11.95567 -4.71841,20.90104 -14.32881,31.97934 -10.78679,12.43437 -12.1934,16.15543 -15.33104,40.55692 -2.41667,18.79448 -4.36791,26.63827 -8.65698,34.8004 -5.69162,10.83116 -14.2789,18.33717 -30.10617,26.31532 -8.3564,4.21226 -8.45969,4.30134 -8.72667,7.52647 -0.26322,3.17979 4e-5,3.5255 10.23403,13.43895 6.02909,5.84024 11.25912,11.68642 12.27615,13.72237 2.45687,4.91834 2.40242,11.70509 -0.12375,15.42237 -3.2805,4.82727 -11.10945,7.59089 -16.21859,5.72514 z m -16.65527,-72.2278 c 15.46452,-3.83891 26.58391,-9.7298 31.69624,-16.79222 2.28992,-3.16339 2.65203,-4.37133 2.65203,-8.84649 0,-6.00432 -1.62945,-8.9319 -7.06982,-12.70208 -5.06662,-3.51117 -9.05216,-4.61955 -16.75791,-4.6604 -8.19313,-0.0434 -8.27672,-0.13643 -7.07263,-7.87046 1.5749,-10.11598 -2.03415,-17.61309 -10.437,-21.68084 -7.6893,-3.72233 -16.09156,-1.24709 -24.37949,7.18203 -12.40656,12.61791 -21.69764,39.44038 -18.17294,52.46358 1.7653,6.52246 7.70492,11.51633 16.90916,14.21674 5.5208,1.61974 23.78401,0.88665 32.63236,-1.30986 z m -63.43836,-26.39832 c 0.21972,-1.04263 0.84306,-4.7392 1.38521,-8.21461 2.47437,-15.86178 7.72473,-25.71084 20.3696,-38.21097 9.15181,-9.04705 9.24507,-9.179 8.80516,-12.45876 -1.14302,-8.52189 -11.53103,-15.34957 -29.23125,-19.2127 -4.19048,-0.91458 -10.9308,-3.20695 -14.97849,-5.09413 -6.48636,-3.0242 -8.32297,-4.42763 -15.48136,-11.82994 -7.36769,-7.61876 -8.40745,-8.39868 -11.19678,-8.39868 -2.62638,0 -3.92984,0.80298 -8.93648,5.50519 -3.2239,3.02785 -7.49902,6.20705 -9.50028,7.06489 -3.67083,1.57351 -12.22958,3.61848 -28.27679,6.7563 -14.38346,2.81249 -22.96398,7.78485 -31.77226,18.41183 -11.52371,13.90306 -15.89109,32.64823 -9.64904,41.41439 5.01586,7.04413 15.92432,13.73763 26.99254,16.56279 7.79043,1.98852 26.05612,1.18325 41.28366,-1.82003 13.99059,-2.75933 27.62067,-3.12834 34.19295,-0.92572 2.35584,0.78952 8.23244,3.8794 13.05912,6.86637 9.49136,5.87371 12.2886,6.64875 12.93449,3.58378 z m 99.79282,-30.21157 c 3.42483,-1.1939 4.63501,-3.6184 7.17789,-14.38027 3.44491,-14.57951 4.72932,-17.09623 12.60846,-24.70574 8.12327,-7.84527 9.63303,-11.10123 10.35277,-22.32688 1.09535,-17.08427 -5.93014,-33.13045 -21.15582,-48.31978 -7.42376,-7.40603 -20.78422,-17.397065 -23.26414,-17.397065 -2.46114,0 -2.66308,1.347213 -1.14079,7.610475 2.69466,11.08684 0.43544,23.29349 -7.27631,39.31408 -4.18727,8.69876 -10.33401,15.42168 -21.17965,23.16503 -11.78057,8.41084 -13.07646,10.43625 -10.35145,16.17878 1.64688,3.47055 4.4343,5.06284 12.67442,7.24013 14.43752,3.81484 22.51395,10.28413 29.34085,23.50227 5.744,11.12143 6.80841,12.00329 12.21377,10.11897 z M 105.97442,207.21813 c 4.90931,-2.04761 8.2912,-5.90805 14.72428,-16.80778 7.40878,-12.55291 11.08176,-17.57775 17.26536,-23.62 9.36324,-9.1492 17.20188,-12.4775 36.60564,-15.54281 11.7568,-1.85728 17.11168,-3.4128 21.68312,-6.29862 5.74491,-3.62661 11.28597,-11.09138 13.76685,-18.54638 0.46701,-1.40336 1.12753,-12.78822 1.46782,-25.2997 0.56293,-20.697208 0.8526,-23.887541 3.21292,-35.385992 2.04149,-9.945216 2.43239,-13.355893 1.83467,-16.00795 -1.59892,-7.094318 -8.22135,-9.861022 -23.4341,-9.790246 -14.44517,0.0672 -30.81011,4.369644 -52.67227,13.847856 -35.38471,15.34082 -66.302764,49.235672 -82.936151,90.921242 -3.032658,7.60026 -3.115969,8.10187 -3.116044,18.76185 -7e-5,9.94488 0.203694,11.43132 2.214253,16.15273 7.427718,17.44255 23.249161,28.84074 40.115887,28.90053 3.681995,0.0131 7.387915,-0.50067 9.267765,-1.28473 z m 193.56201,-50.03296 c 6.97532,-3.43526 19.41527,-15.38776 23.79208,-22.8598 5.15622,-8.80264 6.48161,-13.68603 6.50154,-23.95477 0.0169,-8.73805 -0.13947,-9.60022 -2.73671,-15.084598 -7.67255,-16.201527 -24.53877,-31.976825 -41.92784,-39.215915 -7.89256,-3.28568 -16.93275,-5.643615 -26.54278,-6.923104 -6.89404,-0.917879 -7.50986,-0.868422 -11.00735,0.884018 -4.73395,2.371973 -7.25812,5.616229 -9.81382,12.613421 -3.48645,9.545515 -5.3024,21.080379 -5.31213,33.74261 -0.0191,24.879528 4.09625,38.968678 14.29353,48.934398 9.52747,9.31111 25.69388,15.33229 40.11635,14.94133 5.78629,-0.15686 7.60684,-0.60022 12.63713,-3.07759 z"
       id="path57" />
    <path
       style="fill:#241c1f;fill-opacity:0;stroke-width:1"
       d="m 343.3284,350.75134 c -5.92259,-2.16279 -7.81104,-4.45082 -18.19392,-22.0436 -6.13941,-10.40264 -12.92689,-18.37448 -17.73166,-20.8257 -1.80584,-0.92127 -7.95495,-3.30336 -13.66469,-5.29353 -5.70972,-1.99017 -13.00098,-5.07337 -16.20278,-6.85156 -7.97642,-4.42988 -18.29824,-14.92112 -23.30982,-23.69245 -5.21737,-9.13148 -7.4094,-11.57463 -12.2554,-13.65932 -10.12007,-4.35354 -20.39499,-4.09967 -42.03645,1.03862 -24.29477,5.76825 -29.46544,5.81691 -45.94277,0.43237 -15.98769,-5.22454 -28.07628,-12.7505 -39.60342,-24.6558 l -7.35718,-7.59853 -9.194716,-0.60676 c -11.092963,-0.73203 -16.774943,-2.28204 -26.22108,-7.15295 -14.031927,-7.23558 -25.228915,-18.09345 -31.219832,-30.2743 -4.898457,-9.95963 -6.155565,-15.91095 -5.60599,-26.5395 1.67183,-32.33245 25.16702,-72.159872 58.302213,-98.829873 C 154.41393,14.840506 238.52902,10.660036 322.68657,52.787688 c 58.55214,29.310069 93.84457,71.093992 91.62366,108.476372 -0.7103,11.95567 -4.71841,20.90104 -14.32881,31.97934 -10.78679,12.43437 -12.1934,16.15543 -15.33104,40.55692 -2.41667,18.79448 -4.36791,26.63827 -8.65698,34.8004 -5.69162,10.83116 -14.2789,18.33717 -30.10617,26.31532 -8.3564,4.21226 -8.45969,4.30134 -8.72667,7.52647 -0.26322,3.17979 4e-5,3.5255 10.23403,13.43895 6.02909,5.84024 11.25912,11.68642 12.27615,13.72237 2.45687,4.91834 2.40242,11.70509 -0.12375,15.42237 -3.2805,4.82727 -11.10945,7.59089 -16.21859,5.72514 z m -16.65527,-72.2278 c 15.46452,-3.83891 26.58391,-9.7298 31.69624,-16.79222 2.28992,-3.16339 2.65203,-4.37133 2.65203,-8.84649 0,-6.00432 -1.62945,-8.9319 -7.06982,-12.70208 -5.06662,-3.51117 -9.05216,-4.61955 -16.75791,-4.6604 -8.19313,-0.0434 -8.27672,-0.13643 -7.07263,-7.87046 1.5749,-10.11598 -2.03415,-17.61309 -10.437,-21.68084 -7.6893,-3.72233 -16.09156,-1.24709 -24.37949,7.18203 -12.40656,12.61791 -21.69764,39.44038 -18.17294,52.46358 1.7653,6.52246 7.70492,11.51633 16.90916,14.21674 5.5208,1.61974 23.78401,0.88665 32.63236,-1.30986 z m -63.43836,-26.39832 c 0.21972,-1.04263 0.84306,-4.7392 1.38521,-8.21461 2.47437,-15.86178 7.72473,-25.71084 20.3696,-38.21097 9.15181,-9.04705 9.24507,-9.179 8.80516,-12.45876 -1.14302,-8.52189 -11.53103,-15.34957 -29.23125,-19.2127 -4.19048,-0.91458 -10.9308,-3.20695 -14.97849,-5.09413 -6.48636,-3.0242 -8.32297,-4.42763 -15.48136,-11.82994 -7.36769,-7.61876 -8.40745,-8.39868 -11.19678,-8.39868 -2.62638,0 -3.92984,0.80298 -8.93648,5.50519 -3.2239,3.02785 -7.49902,6.20705 -9.50028,7.06489 -3.67083,1.57351 -12.22958,3.61848 -28.27679,6.7563 -14.38346,2.81249 -22.96398,7.78485 -31.77226,18.41183 -11.52371,13.90306 -15.89109,32.64823 -9.64904,41.41439 5.01586,7.04413 15.92432,13.73763 26.99254,16.56279 7.79043,1.98852 26.05612,1.18325 41.28366,-1.82003 13.99059,-2.75933 27.62067,-3.12834 34.19295,-0.92572 2.35584,0.78952 8.23244,3.8794 13.05912,6.86637 9.49136,5.87371 12.2886,6.64875 12.93449,3.58378 z m 99.79282,-30.21157 c 3.42483,-1.1939 4.63501,-3.6184 7.17789,-14.38027 3.44491,-14.57951 4.72932,-17.09623 12.60846,-24.70574 8.12327,-7.84527 9.63303,-11.10123 10.35277,-22.32688 1.09535,-17.08427 -5.93014,-33.13045 -21.15582,-48.31978 -7.42376,-7.40603 -20.78422,-17.397065 -23.26414,-17.397065 -2.46114,0 -2.66308,1.347213 -1.14079,7.610475 2.69466,11.08684 0.43544,23.29349 -7.27631,39.31408 -4.18727,8.69876 -10.33401,15.42168 -21.17965,23.16503 -11.78057,8.41084 -13.07646,10.43625 -10.35145,16.17878 1.64688,3.47055 4.4343,5.06284 12.67442,7.24013 14.43752,3.81484 22.51395,10.28413 29.34085,23.50227 5.744,11.12143 6.80841,12.00329 12.21377,10.11897 z M 105.97442,207.21813 c 4.90931,-2.04761 8.2912,-5.90805 14.72428,-16.80778 7.40878,-12.55291 11.08176,-17.57775 17.26536,-23.62 9.36324,-9.1492 17.20188,-12.4775 36.60564,-15.54281 11.7568,-1.85728 17.11168,-3.4128 21.68312,-6.29862 5.74491,-3.62661 11.28597,-11.09138 13.76685,-18.54638 0.46701,-1.40336 1.12753,-12.78822 1.46782,-25.2997 0.56293,-20.697208 0.8526,-23.887541 3.21292,-35.385992 2.04149,-9.945216 2.43239,-13.355893 1.83467,-16.00795 -1.59892,-7.094318 -8.22135,-9.861022 -23.4341,-9.790246 -14.44517,0.0672 -30.81011,4.369644 -52.67227,13.847856 -35.38471,15.34082 -66.302764,49.235672 -82.936151,90.921242 -3.032658,7.60026 -3.115969,8.10187 -3.116044,18.76185 -7e-5,9.94488 0.203694,11.43132 2.214253,16.15273 7.427718,17.44255 23.249161,28.84074 40.115887,28.90053 3.681995,0.0131 7.387915,-0.50067 9.267765,-1.28473 z m 193.56201,-50.03296 c 6.97532,-3.43526 19.41527,-15.38776 23.79208,-22.8598 5.15622,-8.80264 6.48161,-13.68603 6.50154,-23.95477 0.0169,-8.73805 -0.13947,-9.60022 -2.73671,-15.084598 -7.67255,-16.201527 -24.53877,-31.976825 -41.92784,-39.215915 -7.89256,-3.28568 -16.93275,-5.643615 -26.54278,-6.923104 -6.89404,-0.917879 -7.50986,-0.868422 -11.00735,0.884018 -4.73395,2.371973 -7.25812,5.616229 -9.81382,12.613421 -3.48645,9.545515 -5.3024,21.080379 -5.31213,33.74261 -0.0191,24.879528 4.09625,38.968678 14.29353,48.934398 9.52747,9.31111 25.69388,15.33229 40.11635,14.94133 5.78629,-0.15686 7.60684,-0.60022 12.63713,-3.07759 z"
       id="path58" />
    <path
       style="fill:#241c1f;fill-opacity:0;stroke-width:1"
       d="m 343.3284,350.75134 c -5.92259,-2.16279 -7.81104,-4.45082 -18.19392,-22.0436 -6.13941,-10.40264 -12.92689,-18.37448 -17.73166,-20.8257 -1.80584,-0.92127 -7.95495,-3.30336 -13.66469,-5.29353 -5.70972,-1.99017 -13.00098,-5.07337 -16.20278,-6.85156 -7.97642,-4.42988 -18.29824,-14.92112 -23.30982,-23.69245 -5.21737,-9.13148 -7.4094,-11.57463 -12.2554,-13.65932 -10.12007,-4.35354 -20.39499,-4.09967 -42.03645,1.03862 -24.29477,5.76825 -29.46544,5.81691 -45.94277,0.43237 -15.98769,-5.22454 -28.07628,-12.7505 -39.60342,-24.6558 l -7.35718,-7.59853 -9.194716,-0.60676 c -11.092963,-0.73203 -16.774943,-2.28204 -26.22108,-7.15295 -14.031927,-7.23558 -25.228915,-18.09345 -31.219832,-30.2743 -4.898457,-9.95963 -6.155565,-15.91095 -5.60599,-26.5395 1.67183,-32.33245 25.16702,-72.159872 58.302213,-98.829873 C 154.41393,14.840506 238.52902,10.660036 322.68657,52.787688 c 58.55214,29.310069 93.84457,71.093992 91.62366,108.476372 -0.7103,11.95567 -4.71841,20.90104 -14.32881,31.97934 -10.78679,12.43437 -12.1934,16.15543 -15.33104,40.55692 -2.41667,18.79448 -4.36791,26.63827 -8.65698,34.8004 -5.69162,10.83116 -14.2789,18.33717 -30.10617,26.31532 -8.3564,4.21226 -8.45969,4.30134 -8.72667,7.52647 -0.26322,3.17979 4e-5,3.5255 10.23403,13.43895 6.02909,5.84024 11.25912,11.68642 12.27615,13.72237 2.45687,4.91834 2.40242,11.70509 -0.12375,15.42237 -3.2805,4.82727 -11.10945,7.59089 -16.21859,5.72514 z m -16.65527,-72.2278 c 15.46452,-3.83891 26.58391,-9.7298 31.69624,-16.79222 2.28992,-3.16339 2.65203,-4.37133 2.65203,-8.84649 0,-6.00432 -1.62945,-8.9319 -7.06982,-12.70208 -5.06662,-3.51117 -9.05216,-4.61955 -16.75791,-4.6604 -8.19313,-0.0434 -8.27672,-0.13643 -7.07263,-7.87046 1.5749,-10.11598 -2.03415,-17.61309 -10.437,-21.68084 -7.6893,-3.72233 -16.09156,-1.24709 -24.37949,7.18203 -12.40656,12.61791 -21.69764,39.44038 -18.17294,52.46358 1.7653,6.52246 7.70492,11.51633 16.90916,14.21674 5.5208,1.61974 23.78401,0.88665 32.63236,-1.30986 z m -63.43836,-26.39832 c 0.21972,-1.04263 0.84306,-4.7392 1.38521,-8.21461 2.47437,-15.86178 7.72473,-25.71084 20.3696,-38.21097 9.15181,-9.04705 9.24507,-9.179 8.80516,-12.45876 -1.14302,-8.52189 -11.53103,-15.34957 -29.23125,-19.2127 -4.19048,-0.91458 -10.9308,-3.20695 -14.97849,-5.09413 -6.48636,-3.0242 -8.32297,-4.42763 -15.48136,-11.82994 -7.36769,-7.61876 -8.40745,-8.39868 -11.19678,-8.39868 -2.62638,0 -3.92984,0.80298 -8.93648,5.50519 -3.2239,3.02785 -7.49902,6.20705 -9.50028,7.06489 -3.67083,1.57351 -12.22958,3.61848 -28.27679,6.7563 -14.38346,2.81249 -22.96398,7.78485 -31.77226,18.41183 -11.52371,13.90306 -15.89109,32.64823 -9.64904,41.41439 5.01586,7.04413 15.92432,13.73763 26.99254,16.56279 7.79043,1.98852 26.05612,1.18325 41.28366,-1.82003 13.99059,-2.75933 27.62067,-3.12834 34.19295,-0.92572 2.35584,0.78952 8.23244,3.8794 13.05912,6.86637 9.49136,5.87371 12.2886,6.64875 12.93449,3.58378 z m 99.79282,-30.21157 c 3.42483,-1.1939 4.63501,-3.6184 7.17789,-14.38027 3.44491,-14.57951 4.72932,-17.09623 12.60846,-24.70574 8.12327,-7.84527 9.63303,-11.10123 10.35277,-22.32688 1.09535,-17.08427 -5.93014,-33.13045 -21.15582,-48.31978 -7.42376,-7.40603 -20.78422,-17.397065 -23.26414,-17.397065 -2.46114,0 -2.66308,1.347213 -1.14079,7.610475 2.69466,11.08684 0.43544,23.29349 -7.27631,39.31408 -4.18727,8.69876 -10.33401,15.42168 -21.17965,23.16503 -11.78057,8.41084 -13.07646,10.43625 -10.35145,16.17878 1.64688,3.47055 4.4343,5.06284 12.67442,7.24013 14.43752,3.81484 22.51395,10.28413 29.34085,23.50227 5.744,11.12143 6.80841,12.00329 12.21377,10.11897 z M 105.97442,207.21813 c 4.90931,-2.04761 8.2912,-5.90805 14.72428,-16.80778 7.40878,-12.55291 11.08176,-17.57775 17.26536,-23.62 9.36324,-9.1492 17.20188,-12.4775 36.60564,-15.54281 11.7568,-1.85728 17.11168,-3.4128 21.68312,-6.29862 5.74491,-3.62661 11.28597,-11.09138 13.76685,-18.54638 0.46701,-1.40336 1.12753,-12.78822 1.46782,-25.2997 0.56293,-20.697208 0.8526,-23.887541 3.21292,-35.385992 2.04149,-9.945216 2.43239,-13.355893 1.83467,-16.00795 -1.59892,-7.094318 -8.22135,-9.861022 -23.4341,-9.790246 -14.44517,0.0672 -30.81011,4.369644 -52.67227,13.847856 -35.38471,15.34082 -66.302764,49.235672 -82.936151,90.921242 -3.032658,7.60026 -3.115969,8.10187 -3.116044,18.76185 -7e-5,9.94488 0.203694,11.43132 2.214253,16.15273 7.427718,17.44255 23.249161,28.84074 40.115887,28.90053 3.681995,0.0131 7.387915,-0.50067 9.267765,-1.28473 z m 193.56201,-50.03296 c 6.97532,-3.43526 19.41527,-15.38776 23.79208,-22.8598 5.15622,-8.80264 6.48161,-13.68603 6.50154,-23.95477 0.0169,-8.73805 -0.13947,-9.60022 -2.73671,-15.084598 -7.67255,-16.201527 -24.53877,-31.976825 -41.92784,-39.215915 -7.89256,-3.28568 -16.93275,-5.643615 -26.54278,-6.923104 -6.89404,-0.917879 -7.50986,-0.868422 -11.00735,0.884018 -4.73395,2.371973 -7.25812,5.616229 -9.81382,12.613421 -3.48645,9.545515 -5.3024,21.080379 -5.31213,33.74261 -0.0191,24.879528 4.09625,38.968678 14.29353,48.934398 9.52747,9.31111 25.69388,15.33229 40.11635,14.94133 5.78629,-0.15686 7.60684,-0.60022 12.63713,-3.07759 z"
       id="path59" />
    <path
       id="path8-5"
       d="m 0,0 c 5.671,-9.636 4.66,-21.659 -2.782,-32.994 -7.499,-11.436 -19.616,-19.258 -28.162,-18.197 -33.769,4.166 -36.543,24.828 -37.726,33.654 -0.072,0.502 -0.129,0.968 -0.194,1.391 -2.531,17.107 0.509,30.679 3.499,39.046 2.237,6.23 6.359,9.772 11.256,9.772 0.559,0 1.133,-0.05 1.721,-0.144 0.487,-0.078 1.097,-0.165 1.828,-0.265 C -42.078,31.116 -16.268,27.61 0,0"
       style="fill:#069bc5;fill-opacity:1;fill-rule:nonzero;stroke:none;stroke-width:0.992599"
       transform="matrix(1.3333333,0,0,-1.3532916,325.5856,91.904791)"
       clip-path="url(#clipPath9)" />
    <path
       id="path12-9"
       d="m 0,0 c 4.252,-0.796 9.027,-3.413 7.65,-11.371 -0.28,-1.642 -0.703,-3.613 -1.147,-5.7 -1.154,-5.42 -2.596,-12.174 -2.925,-18.935 -0.194,-4.065 -0.051,-7.8 0.093,-11.406 0.322,-8.224 0.602,-15.336 -3.606,-22.305 -6.245,-10.346 -15.107,-11.579 -24.499,-12.884 -7.27,-1.003 -14.791,-2.05 -21.924,-7.119 -9.299,-6.618 -14.125,-15.128 -18.003,-21.968 -4.123,-7.277 -7.378,-13.02 -14.081,-13.844 -10.454,-1.283 -21.022,3.291 -28.299,12.246 -7.435,9.169 -9.722,20.942 -6.108,31.503 12.052,35.238 38.766,60.783 59.895,70.462 C -31.03,-1.269 -17.68,0.946 -9.285,0.946 -5.119,0.946 -2.165,0.401 0,0"
       style="fill:#edc032;fill-opacity:1;fill-rule:nonzero;stroke:none"
       transform="matrix(1.3333333,0,0,-1.3333333,206.34693,40.802801)"
       clip-path="url(#clipPath13)" />
    <path
       id="path10-5"
       d="m 0,0 c 5.219,-2.531 15.493,-10.145 7.041,-16.325 -10.791,-7.894 -18.519,-20.77 -19.645,-37.511 -0.516,-7.636 -12.038,7.305 -24.147,8.209 -6.553,0.487 -12.282,0.287 -21.896,-1.936 -5.851,-1.348 -10.941,-1.642 -17.078,-2.158 -20.032,-1.706 -33.037,10.74 -34.6,15.752 -4.646,14.948 9.578,33.058 21.415,38.959 4.374,2.187 9.994,3.147 15.945,4.173 4.847,0.831 9.858,1.692 14.461,3.276 5.614,1.943 8.36,5.005 10.375,7.241 1.663,1.857 2.767,3.083 4.681,3.083 3.284,0 4.818,-1.928 7.141,-4.846 2.309,-2.911 5.191,-6.532 10.955,-9.464 7.278,-3.7 11.422,-4.495 15.078,-5.198 C -7.234,2.674 -4.366,2.122 0,0"
       style="fill:#ff8400;fill-opacity:1;fill-rule:nonzero;stroke:none;stroke-width:0.998155"
       transform="matrix(1.3333333,0,0,-1.3382668,280.26693,179.13776)"
       clip-path="url(#clipPath11)" />
    <path
       id="path6-0"
       d="m 0,0 c 0,-0.796 -0.1,-1.606 -0.308,-2.416 -2.065,-8.195 -13.83,-14.899 -31.468,-17.924 -11.471,-1.972 -21.25,-0.466 -26.821,4.122 -3.119,2.574 -4.746,5.966 -4.832,10.102 -0.208,9.235 2.445,18.104 7.377,26.105 0,0 6.646,15.092 18.591,16.045 0.473,0.043 0.939,0.108 1.412,0.108 2.689,0 5.363,-1.162 7.966,-3.463 6.151,-5.442 5.054,-10.855 4.251,-14.805 -0.416,-2.051 -0.738,-3.671 0.223,-4.718 0.838,-0.918 2.272,-0.875 3.276,-0.76 6.116,0.703 10.274,0.222 16.06,-4.309 C -1.484,5.908 0,3.047 0,0"
       style="fill:#c3446b;fill-opacity:1;fill-rule:nonzero;stroke:none;stroke-width:0.982812"
       transform="matrix(1.3489389,0,0,-1.3644012,362.26895,252.0392)"
       clip-path="url(#clipPath7)" />
    <path
       id="path4-6"
       d="m 0,0 c 13.543,-8.467 35.726,-26.52 32.141,-52.238 -1.133,-8.108 -4.488,-10.804 -7.743,-13.414 -2.129,-1.706 -4.33,-3.47 -5.714,-6.625 -1.979,-4.509 -2.954,-8.847 -3.821,-12.682 -1.133,-5.026 -2.022,-8.991 -4.661,-9.995 -4.509,-1.721 -5.635,0.165 -8.209,5.858 -1.9,4.215 -4.201,8.653 -10.188,13.593 -2.753,2.273 -7.083,4.467 -10.969,5.32 -5.306,1.154 -10.31,2.244 -11.916,6.546 -1.513,4.079 1.233,6.158 7.076,10.109 5.478,3.699 12.977,8.768 17.473,18.662 6.653,14.626 7.822,23.854 4.179,32.909 -0.322,0.788 0.029,1.455 0.459,1.821 0.265,0.222 0.631,0.387 1.047,0.387 C -0.574,0.251 -0.287,0.179 0,0"
       style="fill:#1f5d90;fill-opacity:1;fill-rule:nonzero;stroke:none;stroke-width:1"
       transform="matrix(1.3333332,0,0,-1.3333299,349.7096,94.980356)"
       clip-path="url(#clipPath5)" />
  </g>
</svg>
